<?xml version="1.0"?>
<svg xmlns="http://www.w3.org/2000/svg" id="Layer_1" data-name="Layer 1" viewBox="0 0 512 512" width="512" height="512"><title>a2</title><path d="M140.544,95H190.7a6.273,6.273,0,0,0,4.243-10.608L174.7,64.082A131.034,131.034,0,0,1,364.168,91.143a6,6,0,0,0,9.83-6.9,143.057,143.057,0,0,0-207.83-28.754L144.787,34.112a5.638,5.638,0,0,0-6.311-1.3A5.8,5.8,0,0,0,135,38.354V88.513C135,91.826,137.231,95,140.544,95ZM147,52.839l14.541,14.769c.009.01-.1.021-.089.032.163.183.279.593.457.751L176.218,83H147Z"/><path d="M369,417H318.841a6.273,6.273,0,0,0-4.242,10.608l20.248,20.31a131.034,131.034,0,0,1-189.471-27.061,6,6,0,0,0-9.83,6.895,143.057,143.057,0,0,0,207.83,28.754l21.381,21.382A6,6,0,0,0,375,473.646V423.487C375,420.174,372.313,417,369,417Zm-6,42.161-14.769-14.769-.025-.032c-.162-.183-.336-.593-.514-.751L333.327,429H363Z"/><path d="M187.5,396c3.313,0,5.5-2.963,5.5-6.276V345.746c0-.167.243-.333.229-.5A37.317,37.317,0,0,0,172.9,315.039c-.21-.1-.128-.2-.349-.277L150,306.516v-7.689a6.227,6.227,0,0,0-3.405-5.29c-.179-.1-.483-.171-.668-.248l-.055-.01-11.686-4.8a64.727,64.727,0,0,0,37.58-54.365A20.924,20.924,0,0,0,183.6,210a17.045,17.045,0,0,0-9.51-11.548l1.054-15.289A67.946,67.946,0,0,0,57.683,132.13a67.272,67.272,0,0,0-18.115,51.038l1.053,15.268a17.038,17.038,0,0,0-9.549,11.569,20.943,20.943,0,0,0,11.869,24.12,64.678,64.678,0,0,0,37.676,54.387l-11.43,4.708.024.06c-.192.078-.62.158-.806.257A6.227,6.227,0,0,0,65,298.827v7.689l-22.616,8.246a4.38,4.38,0,0,0-.53.277,37.658,37.658,0,0,0-20.642,30.208c-.014.166-.212.332-.212.5v43.978A6.687,6.687,0,0,0,27.5,396H86.469L103.2,418.166a6.136,6.136,0,0,0,9.6.035L129.525,396Zm-64.7-55.669a5.9,5.9,0,0,0,2.714.595,6.027,6.027,0,0,0,4.8-2.435l15.416-20.572,11.988,4.318a37.463,37.463,0,0,0-10.653,23.015c-.013.165-.065.328-.065.494V384H130.874ZM68,384V345.746c0-.167.028-.333.014-.5a37.408,37.408,0,0,0-10.63-23.062L69.261,317.9l15.42,20.555a6,6,0,0,0,8.131,1.392l.526-.212L85.122,384Zm50.316-61.153,17.411-11.607L124.12,326.716ZM121,306.477l-13.526,9.159L94,306.511V292.87a60.028,60.028,0,0,0,13.327,1.445A59.367,59.367,0,0,0,121,292.792Zm-24.316,16.37-5.8,3.869L79.273,311.24ZM181,346.009V384H159V346.009c1-7.6,4.7-14.515,11-18.7C176.3,331.494,181,338.4,181,346.009ZM66.455,140.319a55.946,55.946,0,0,1,96.711,42.023l-.66,9.566-4.858-20.024a5.889,5.889,0,0,0-.31-.935,30.493,30.493,0,0,0-26.58-18.431l-5.719-.253a6.019,6.019,0,0,0-5.154,2.517,50.657,50.657,0,0,1-46.652,20.989l-9.614-1.034a8.4,8.4,0,0,0-9.274,7.685l-1.479,18.506-.046-.017-1.28-18.569A55.386,55.386,0,0,1,66.455,140.319ZM54.8,229.669a6,6,0,0,0-4.964-5.91,8.883,8.883,0,0,1-7.357-8.771,9.016,9.016,0,0,1,.254-2.13,5.045,5.045,0,0,1,1.905-2.923,10.711,10.711,0,0,0,2.13,1.456c.166.085.336.163.509.232,8.752,3.507,11.388,3.928,14.1,2.248a6.143,6.143,0,0,0,2.877-4.71l1.766-22.1,5.938.639a62.682,62.682,0,0,0,55.717-23.31l2.562.113a18.439,18.439,0,0,1,15.882,10.722l9.028,37.213a6,6,0,0,0,9.924,2.972l4.932-4.6c.168-.157.32-.326.478-.49a5.066,5.066,0,0,1,1.463,2.538,8.922,8.922,0,0,1-7.081,10.9,6.1,6.1,0,0,0-4.953,6A52.554,52.554,0,1,1,54.8,229.669ZM33,346.009a26.549,26.549,0,0,1,11.5-18.752A26.556,26.556,0,0,1,56,346.009V384H33Zm75,58.419L96.362,388.915l10.908-58.7.23-.153,1.381.921,10.751,57.936Z"/><path d="M435.107,158.729a80.769,80.769,0,0,0-60.691-22.02c-41.043,2.7-74.361,36.818-75.852,77.664a81.207,81.207,0,0,0,25.462,62.341,43.57,43.57,0,0,1,12.9,37.637l-.793,6.079a6.978,6.978,0,0,0,1.225,5.529A7.429,7.429,0,0,0,343.433,329H346v18.169A20.541,20.541,0,0,0,366.793,368h25.414A20.541,20.541,0,0,0,413,347.169V329h1.7c.08,0,.252.09.332.088a7.821,7.821,0,0,0,7.7-8.023c0-.056,0-.1-.007-.156l-.555-10.546v-.027a42.588,42.588,0,0,1,12.836-33.6c1.132-1.064,2.249-2.178,3.322-3.31a81.146,81.146,0,0,0-3.224-114.695ZM392.207,356H366.793c-4.633,0-8.47-3-9.127-7h43.668C400.677,353,396.84,356,392.207,356ZM401,337H358v-8h43Zm-21.5-72.12a7.018,7.018,0,1,1,7.017-7.018A7.025,7.025,0,0,1,379.5,264.88Zm64.628-22.959a68.619,68.619,0,0,1-14.512,23.254c-.914.965-1.865,1.914-2.841,2.831a54.381,54.381,0,0,0-16.584,42.913l.325,6.081H385V275.9a18.7,18.7,0,0,0,13.267-18.033,18.932,18.932,0,0,0-18.892-19.017,19.2,19.2,0,0,0-19.2,19.017A19.628,19.628,0,0,0,373,275.9V317H348.66l.159-1.129a55.491,55.491,0,0,0-16.546-47.919,69.124,69.124,0,0,1-21.717-53.133c1.269-34.794,29.666-63.844,64.6-66.138a69.166,69.166,0,0,1,68.976,93.24Z"/></svg>
