<?xml version="1.0" encoding="UTF-8"?>
<svg width="1077px" height="1004px" viewBox="0 0 1077 1004" version="1.1" xmlns="http://www.w3.org/2000/svg" xmlns:xlink="http://www.w3.org/1999/xlink">
    <!-- Generator: Sketch 51.3 (57544) - http://www.bohemiancoding.com/sketch -->
    <title>html</title>
    <desc>Created with Sketch.</desc>
    <defs></defs>
    <g id="Page-1" stroke="none" stroke-width="1" fill="none" fill-rule="evenodd">
        <g id="iPhone-X" transform="translate(-1898.000000, -2801.000000)" fill="#000000" fill-rule="nonzero">
            <g id="html" transform="translate(1898.000000, 2801.000000)">
                <path d="M1040.28745,0 L36.7148975,0 C15.9106479,0 0,15.9174619 0,36.7329648 L0,967.269379 C0,988.084882 15.9106479,1004 36.7148975,1004 L1040.2851,1004 C1061.09169,1004 1077,988.082538 1077,967.269379 L1077,36.7329648 C1077.00234,15.9174619 1061.09169,0 1040.28745,0 Z M1003.5702,73.4635861 L1003.5702,224.063117 L73.4321376,224.063117 L73.4321376,73.4635861 L1003.5702,73.4635861 Z M73.4321376,930.538757 L73.4321376,297.529047 L1003.5702,297.529047 L1003.5702,930.538757 L73.4321376,930.538757 Z" id="Shape"></path>
                <g id="Group" transform="translate(153.000000, 318.000000)">
                    <path d="M221.431317,474.124112 C212.857058,474.124112 205.506689,471.674632 198.15632,465.552104 L14.4158462,318.597368 C5.84158769,311.248928 0.941341538,301.453352 0.941341538,290.431864 C0.941341538,279.410376 5.84158769,268.388888 14.4158462,262.26636 L198.15632,115.311624 C214.080948,103.066568 237.3536,105.513704 249.604215,121.434152 C261.852486,137.3546 259.404708,160.621144 243.48008,172.868544 L95.2628738,291.657776 L243.48008,410.447008 C259.404708,422.692064 261.854831,445.960952 249.604215,461.8814 C243.48008,469.225152 232.455698,474.124112 221.431317,474.124112 Z" id="Shape"></path>
                    <path d="M539.916837,474.124112 C528.892455,474.124112 517.868074,469.225152 511.743938,460.653144 C499.495668,444.732696 501.943446,421.466152 517.868074,409.218752 L666.08528,290.42952 L516.64184,171.640288 C500.717212,159.395232 498.267089,136.126344 510.517705,120.205896 C522.765975,104.285448 546.040972,101.835968 561.9656,114.083368 L745.706074,261.038104 C754.280332,268.386544 759.180578,278.18212 759.180578,289.203608 C759.180578,300.225096 754.280332,311.246584 745.706074,317.369112 L561.9656,464.323848 C555.841465,471.674632 548.491095,474.124112 539.916837,474.124112 Z" id="Shape"></path>
                    <path d="M308.40248,584.338992 C305.952357,584.338992 302.278345,584.338992 299.828222,583.115424 C280.229582,578.216464 267.978966,558.622968 272.879212,539.029472 L402.724012,28.363288 C407.624258,8.769792 427.222898,-3.477608 446.821538,1.421352 C466.420178,6.320312 478.670794,25.913808 473.770548,45.507304 L343.925748,556.173488 C340.251735,573.317504 324.327108,584.338992 308.40248,584.338992 Z" id="Shape"></path>
                </g>
            </g>
        </g>
    </g>
</svg>