<svg height="512pt" viewBox="0 -143 512.00012 512" width="512pt" xmlns="http://www.w3.org/2000/svg"><path d="m40.945312 179.71875h-17.992187c-12.675781 0-22.953125 10.277344-22.953125 22.953125 0 12.679687 10.277344 22.957031 22.953125 22.957031h17.996094c-8.796875-13.945312-8.851563-31.890625-.003907-45.910156zm0 0"/><path d="m461.46875 26.742188v8.820312c6.148438.484375 11.449219 4.050781 14.351562 9.148438 5.714844 4.386718 9.316407 11.277343 9.316407 18.894531v15.195312c.972656.464844 1.925781.972657 2.851562 1.519531 14.785157-7.074218 24.707031-22.464843 23.972657-39.878906-.980469-23.296875-20.664063-41.386718-43.960938-40.4023435-7.945312.3320315-15.28125 2.8476565-21.464844 6.9335935 8.605469 2.460938 14.933594 10.382813 14.933594 19.769532zm0 0"/><path d="m462.828125 54.285156v-1.621094c0-1.546874-1.253906-2.800781-2.800781-2.800781h-8.691406c-1.546876 0-2.800782 1.253907-2.800782 2.800781v1.476563h-14.792968v-4.410156h7.171874c2.839844 0 5.144532-2.304688 5.144532-5.144531v-18.820313c0-2.839844-2.304688-5.144531-5.144532-5.144531h-14.519531c-.019531-.035156-.035156-.066406-.054687-.101563h-18.207032c-2.882812 0-5.222656 2.335938-5.222656 5.21875v18.871094c0 2.882813 2.339844 5.21875 5.222656 5.21875h7.144532v4.3125h-27.566406c-4.675782 0-8.464844 3.789063-8.464844 8.464844v47.394531c0 4.675781 3.789062 8.464844 8.464844 8.464844h47.035156l-.472656-3.472656c-.214844-1.582032-.308594-3.148438-.316407-4.703126-2.933593 1.140626-6.113281 1.777344-9.445312 1.777344-14.398438 0-26.113281-11.714844-26.113281-26.117187 0-14.398438 11.714843-26.113281 26.113281-26.113281 12.453125 0 22.890625 8.761718 25.488281 20.445312 4.359375-2.890625 9.421875-4.867188 14.953125-5.621094 1.621094-.21875 3.230469-.316406 4.824219-.320312v-11.734375c0-4.15625-2.996094-7.605469-6.949219-8.320313zm-70.179687 17.222656c-2.246094 0-4.070313-1.824218-4.070313-4.070312 0-2.25 1.824219-4.074219 4.070313-4.074219 2.25 0 4.074218 1.824219 4.074218 4.074219 0 2.246094-1.824218 4.070312-4.074218 4.070312zm20.601562-32.015624v-8.632813h22.523438v8.632813zm0 0"/><path d="m491.746094 108.179688c-1.648438-12.132813-12.828125-20.628907-24.953125-18.980469-12.132813 1.648437-20.632813 12.824219-18.980469 24.957031l4.300781 31.664062s-69.207031-11.691406-69.90625-11.644531c-10.488281-2.492187-18.316406-11.929687-18.316406-23.171875v-47.394531c0-13.085937 10.601563-23.738281 23.667969-23.820313v-13.046874c0-6.476563 3.015625-12.257813 7.710937-16.03125l-64.828125 2.632812c-16.859375.6875-26.816406 19.273438-18.03125 33.691406l26.480469 43.449219-9.539063-7.585937c-21.699218 4.308593-81.851562 16.242187-102.421874 20.324218h-75.894532c-6.238281 0-12.210937 2.542969-16.539062 7.035156l-73.632813 76.496094c-8.789062 9.136719-8.515625 23.667969.621094 32.457032 9.128906 8.789062 23.660156 8.519531 32.457031-.617188l66.859375-69.460938c74.566407-.089843 71.117188.222657 74.328125-.253906.285156 1.433594 2.675782 13.484375 2.980469 15.019532l-77.789063 14.742187-45.226562 46.988281h41.699219c1.433593 0 2.863281-.132812 4.273437-.402344l229.574219-44.480468c.585937-.117188 83.695313 14 83.695313 14 6.867187 1.207031 14.035156-.882813 19.207031-5.859375 5.101562-4.90625 7.554687-11.953125 6.597656-18.964844zm0 0"/><path d="m408.636719 85.953125c0 8.765625 7.105469 15.875 15.875 15.875.597656 0 1.183593-.039063 1.765625-.101563.164062-.019531.324218-.050781.488281-.074218.417969-.058594.835937-.128906 1.242187-.222656.167969-.035157.328126-.082032.492188-.125.40625-.105469.8125-.226563 1.207031-.359376.136719-.046874.269531-.097656.402344-.148437.4375-.164063.863281-.347656 1.28125-.546875.082031-.039062.160156-.078125.242187-.117188 4.015626-2.023437 7.046876-5.691406 8.21875-10.128906.039063-.160156.085938-.320312.121094-.480468.058594-.253907.109375-.503907.15625-.761719.046875-.253907.082032-.511719.117188-.769531.023437-.199219.054687-.394532.070312-.589844.046875-.480469.074219-.960938.074219-1.449219 0-8.769531-7.109375-15.875-15.875-15.875-8.769531 0-15.878906 7.105469-15.878906 15.875zm0 0"/></svg>