<svg height="512" viewBox="0 0 56 56" width="512" xmlns="http://www.w3.org/2000/svg"><g id="Page-1" fill="none" fill-rule="evenodd"><g id="098---Business-Suit" fill="rgb(0,0,0)" fill-rule="nonzero"><path id="Shape" d="m45 50.228v-13.228c0-.5522847.4477153-1 1-1h8.829c-1.6983304 5.6584051-5.1377586 10.6371604-9.829 14.228z"/><path id="Rectangle-path" d="m47 31h5v3h-5z"/><path id="Shape" d="m47.388 29 1.088-3.263c.1470751-.4408899.5597259-.7382402 1.0245-.7382402s.8774249.2973503 1.0245.7382402l1.087 3.263z"/><path id="Shape" d="m56 28c-.0010458 2.0177294-.2203209 4.0294276-.654 6h-1.346v-4c0-.01-.005-.017-.005-.027-.0012113-.0981343-.0170522-.1955391-.047-.289l-1.525-4.578c-.41973-1.257499-1.5968013-2.1055233-2.9225-2.1055233s-2.50277.8480243-2.9225 2.1055233l-1.526 4.579c-.0299478.0934609-.0457887.1908657-.047.289 0 .01-.005.017-.005.027v4.184c-1.1940068.4221309-1.9943273 1.548582-2 2.815v14.625c-2.0045533 1.2788193-4.1644015 2.2960685-6.427 3.027l-4.531-23.533 2.95-6.642 3.108 1.911c.824029.5081836 1.8426516.5874712 2.7353911.2129173.8927395-.3745538 1.5498559-1.1569069 1.7646089-2.1009173l3.96-17.451c6.0245064 5.2927823 9.4664593 12.9318029 9.44 20.951z"/><path id="Shape" d="m22.727 23.419 5.273-3.245 5.273 3.245-2.923 6.581h-4.7z"/><path id="Shape" d="m37.279 4h-18.558l-2.8-4h24.158z"/><path id="Shape" d="m35.879 6-7.879 11.256-7.879-11.256z"/><path id="Shape" d="m44.692 4.841c.1513978.22801491.2027202.50811958.142.775l-4.19 18.438c-.0711556.3149681-.2900214.5761941-.5876638.7014023-.2976423.1252082-.6374272.098988-.9123362-.0704023l-9.716-5.985 12.551-17.928z"/><path id="Shape" d="m11.309 4.84 2.712-4.068 12.551 17.928-9.717 5.981c-.274909.1693903-.6146939.1956105-.9123362.0704023-.2976424-.1252082-.5165082-.3864342-.5876638-.7014023l-4.19-18.435c-.0601369-.26715309-.0080875-.54727958.144-.775z"/><path id="Shape" d="m0 28c-.02643288-8.0189046 3.41554096-15.6576071 9.44-20.95l3.965 17.45c.2139815.9445468.8707868 1.7276945 1.7636387 2.1028908.8928519.3751962 1.9119135.2962849 2.7363613-.2118908l3.105-1.911 2.95 6.642-4.533 23.53c-11.56736048-3.7349441-19.41168617-14.4966143-19.427-26.652z"/><path id="Shape" d="m21.359 55.2 4.467-23.2h4.348l4.467 23.2c-4.3627807 1.0691977-8.9192193 1.0691977-13.282 0z"/></g></g></svg>